# xmcd
#
# Track frame offsets:
#	150
#	16301
#	36180
#	54126
#	94348
#	105476
#	121004
#	144353
#	155154
#	169592
#	194015
#	214277
#	230907
#
# Disc length: 3321 seconds
#
# Revision: 1
# Processed by: cddbd v1.5.2PL0 Copyright (c) Steve Scherf et al.
# Submitted via: audiograbber 1.83.01
#
DISCID=b10cf70d
DTITLE=Amok - unvergessen ...
DYEAR=1995
DGENRE=Schlager
TTITLE0=Geld her
TTITLE1=Zivilcourage
TTITLE2=FCKW
TTITLE3=Jede Nacht
TTITLE4=Auf einer Party
TTITLE5=Kleine freche M‰dchen
TTITLE6=Schmeiﬂ weg
TTITLE7=Schulz
TTITLE8=Peter G.
TTITLE9=Julia and B.o.B. Intro (feat. S.H.)
TTITLE10=Zivilcourage (live)
TTITLE11=Regentanz
TTITLE12=FCKW (live)
EXTD=
EXTT0=
EXTT1=
EXTT2=
EXTT3=
EXTT4=
EXTT5=
EXTT6=
EXTT7=
EXTT8=
EXTT9=
EXTT10=
EXTT11=
EXTT12=
PLAYORDER=
